<?xml version="1.0" standalone="no"?>
<!DOCTYPE svg PUBLIC "-//W3C//DTD SVG 20010904//EN"
 "http://www.w3.org/TR/2001/REC-SVG-20010904/DTD/svg10.dtd">
<svg version="1.0" xmlns="http://www.w3.org/2000/svg"
 width="457.000000pt" height="457.000000pt" viewBox="0 0 457.000000 457.000000"
 preserveAspectRatio="xMidYMid meet">
<metadata>
Created by potrace 1.14, written by Peter Selinger 2001-2017
</metadata>
<g transform="translate(0.000000,457.000000) scale(0.100000,-0.100000)"
fill="#000000" stroke="none">
<path d="M1285 4190 c11 -19 18 -76 21 -195 4 -160 -3 -187 -108 -384 -12 -25
-31 -54 -40 -65 -10 -11 -18 -25 -18 -32 0 -7 -7 -25 -15 -41 -14 -25 -33 -72
-41 -98 -16 -53 -34 -128 -41 -165 -11 -69 -7 -285 7 -320 1 -3 2 -9 1 -13 -1
-4 3 -16 9 -27 14 -25 3 -49 -20 -43 -11 3 -31 -6 -51 -24 -43 -38 -79 -76
-79 -85 0 -3 -7 -13 -15 -21 -22 -23 -112 -207 -100 -207 3 0 0 -12 -6 -27
-20 -53 -29 -191 -16 -261 8 -50 80 -139 137 -171 14 -8 41 -22 62 -32 l36
-19 -29 -72 c-51 -124 -47 -119 -85 -103 -18 7 -35 11 -38 7 -3 -3 -6 -1 -6 4
0 5 -11 11 -25 12 -14 1 -39 9 -55 17 -16 8 -34 15 -40 15 -7 0 -24 9 -40 20
-15 11 -30 17 -34 13 -3 -3 -6 -2 -6 3 0 15 -70 37 -109 36 -43 -2 -99 -44
-118 -90 -14 -34 -19 -206 -8 -272 2 -14 7 -45 10 -70 4 -25 8 -55 11 -67 28
-151 37 -189 56 -253 11 -36 26 -81 35 -100 9 -19 16 -41 16 -47 0 -7 3 -13 7
-13 3 0 14 -18 24 -40 10 -22 22 -40 27 -40 5 0 9 -5 9 -10 0 -13 47 -61 80
-81 41 -26 120 -48 194 -54 37 -3 71 -6 75 -7 3 0 8 1 11 2 3 1 23 3 45 6 114
11 242 45 257 68 4 6 8 8 8 3 0 -4 17 3 38 16 70 44 66 44 58 1 -3 -21 -9 -65
-12 -96 l-6 -56 43 -9 c44 -9 256 -8 294 1 11 2 24 5 28 5 9 1 7 100 -2 116
-3 6 -6 19 -7 30 0 11 -4 34 -8 50 -4 17 -10 37 -12 45 -2 8 -10 36 -18 61
-14 45 -14 46 5 42 21 -6 36 -23 20 -23 -18 0 10 -49 31 -56 11 -3 26 -21 35
-39 9 -19 26 -36 40 -39 12 -4 23 -12 23 -19 0 -20 43 -55 63 -52 11 2 17 -3
17 -16 0 -10 9 -23 20 -29 10 -6 17 -16 15 -23 -8 -23 -14 -81 -9 -88 5 -8 80
26 89 41 11 17 51 11 71 -11 13 -15 26 -19 46 -15 17 3 33 0 43 -10 8 -8 27
-15 42 -14 48 1 67 1 93 -3 14 -3 33 3 43 12 11 9 31 14 48 12 21 -2 36 4 48
18 18 20 71 27 71 8 0 -4 5 -5 10 -2 6 3 10 2 10 -3 0 -5 18 -16 40 -25 44
-17 44 -17 31 51 -5 23 -5 42 -2 42 4 0 15 13 24 30 10 16 23 27 30 24 15 -6
60 34 52 46 -7 11 30 32 39 23 3 -3 14 13 24 36 11 23 22 42 26 42 20 -2 25 3
39 38 20 50 50 65 35 18 -39 -125 -71 -316 -52 -318 5 0 20 -3 34 -6 14 -3 87
-6 162 -6 119 -1 140 2 157 17 11 10 18 23 14 29 -3 5 -7 21 -9 36 -1 14 -6
50 -9 80 -6 51 -6 53 10 37 16 -16 109 -67 120 -66 3 0 19 -7 35 -15 16 -8 32
-15 35 -15 5 0 13 -1 30 -4 73 -13 114 -20 135 -20 14 -1 31 -5 38 -9 7 -5 12
-4 12 3 0 7 6 8 19 1 10 -6 21 -8 24 -5 3 3 25 7 48 9 23 2 73 13 110 25 106
35 171 107 234 266 15 37 29 75 31 85 2 11 6 28 9 39 3 11 7 29 9 40 3 11 8
24 11 30 3 5 8 28 10 50 2 22 7 46 11 52 4 6 9 32 11 57 6 78 10 114 18 162
11 70 12 160 3 199 -5 19 -10 40 -11 47 -5 19 -39 54 -72 71 -41 22 -90 16
-157 -19 -52 -26 -149 -68 -173 -74 -5 -1 -17 -5 -25 -8 -8 -3 -32 -10 -52
-16 -36 -9 -38 -8 -52 22 -40 89 -54 126 -48 131 3 3 0 6 -8 6 -19 0 6 28 33
36 62 19 162 109 193 173 25 52 22 185 -6 300 -13 53 -50 144 -63 152 -5 3 -7
9 -5 12 1 4 -5 15 -14 27 -10 11 -15 20 -12 20 6 0 -57 81 -81 105 -19 19 -64
45 -79 45 -21 0 -27 15 -17 42 24 62 37 270 20 315 -5 13 -4 25 2 28 5 4 6 12
2 18 -4 7 -17 50 -29 97 -19 76 -47 149 -76 204 -27 51 -51 92 -59 102 -5 6
-6 14 -2 17 3 4 2 7 -4 7 -15 0 -69 116 -88 189 -9 35 -16 98 -16 140 1 102 1
107 16 174 16 67 9 71 -59 35 -57 -32 -108 -84 -136 -143 -27 -55 -26 -51 -39
-117 -10 -46 -8 -183 3 -223 7 -27 27 -106 31 -125 2 -8 4 -15 5 -15 1 0 3 -7
5 -15 2 -8 11 -40 20 -70 29 -102 34 -176 15 -225 -5 -14 -7 -25 -5 -25 3 0
-4 -16 -15 -36 -11 -19 -18 -39 -15 -44 3 -5 0 -12 -6 -15 -11 -7 -40 25 -33
37 6 9 -57 150 -73 163 -6 6 -13 17 -15 25 -2 8 -13 25 -25 37 -13 12 -23 26
-23 30 0 11 -137 143 -148 143 -5 0 -17 9 -27 20 -31 35 -37 22 -8 -17 15 -21
31 -40 36 -41 4 -2 5 -7 2 -12 -3 -5 2 -15 10 -24 9 -8 16 -19 17 -23 1 -11 8
-35 18 -58 22 -52 35 -207 23 -266 l-5 -26 -52 31 c-28 17 -71 40 -94 50 -23
10 -42 22 -42 25 0 4 22 21 50 39 50 33 50 33 33 58 -26 41 -107 76 -177 77
l-62 2 -28 63 c-31 66 -136 182 -166 182 -37 0 -180 -170 -180 -214 0 -22 -16
-28 -82 -32 -66 -3 -147 -41 -173 -80 -14 -22 -13 -24 35 -56 28 -18 50 -35
50 -38 0 -3 -45 -28 -99 -56 l-99 -52 -5 32 c-16 103 12 264 63 348 43 71 50
88 40 88 -5 0 -19 -9 -30 -20 -11 -11 -24 -20 -28 -20 -22 0 -188 -199 -195
-233 -1 -6 -5 -14 -8 -17 -10 -8 -59 -128 -59 -144 0 -8 -5 -18 -12 -22 -7 -4
-8 -3 -4 4 4 7 3 12 -1 12 -10 0 -42 91 -48 135 -2 17 -4 30 -5 30 -6 0 -3 86
3 88 4 1 9 16 11 32 2 17 9 42 15 58 6 15 8 27 5 27 -4 0 -1 7 6 15 7 8 10 15
7 15 -3 0 2 24 13 54 33 97 46 226 30 313 -11 63 -11 65 -28 106 -7 16 -12 30
-12 33 0 7 -34 47 -70 83 -46 45 -156 95 -135 61z"/>
</g>
</svg>
